# xmcd CD database file
#
# Track frame offsets:
#	150
#	4750
#	15660
#	45982
#	70017
#	94115
#	110662
#	124087
#	149270
#	179767
#	199500
#	232795
#	265222
#	288792
#	316260
#
# Disc length: 4573 seconds
#
# Revision: 1
# Processed by: cddbd v1.5.1PL2 Copyright (c) Steve Scherf et al.
# Submitted via: CDex 1.51
#
DISCID=c511db0f
DTITLE=Various Artist - On Air TV-CM Jazz Hits
DYEAR=2002
DGENRE=Jazz
TTITLE0=人間みな兄弟 (Cyrus Mosley)
TTITLE1=Hello, Dolly ! (Louis Armstrong)
TTITLE2=St. Thomas (Sonny Rollins)
TTITLE3=Five Spot After Dark (Curtis Fuller)
TTITLE4=Azure 〜Polovetsian Dance From Opera "Prince Igor" (Borodin)
TTITLE5=Passeio NaS Estrelas 星の散歩 (小野リサ)
TTITLE6=Over The Rainbow　虹の彼方に Peter Cincotti)
TTITLE7=California Shower (渡辺貞夫)
TTITLE8=Marco Polo (Bob James)
TTITLE9=You'd Be So Nice To Come Home To (Helen Merrill)
TTITLE10=You And The Night And The Music (Bill Evans)
TTITLE11=Super Safari (Native Son)
TTITLE12=Georgia On My Mind　我が心のジョージア (David Sanborn)
TTITLE13=36414 (Ron Carter)
TTITLE14=Round Midnight (Miles Davis)
EXTD=YEAR: 2002
EXTT0=
EXTT1=
EXTT2=
EXTT3=
EXTT4=
EXTT5=
EXTT6=
EXTT7=
EXTT8=
EXTT9=
EXTT10=
EXTT11=
EXTT12=
EXTT13=
EXTT14=
PLAYORDER=
